<svg width="42" height="58" viewBox="0 0 42 58" fill="none" xmlns="http://www.w3.org/2000/svg">
<path id="3" d="M34 27.44C38.96 30.16 42 34.96 42 40.72C42 50.4 33.36 57.12 20.8 57.12C12.72 57.12 4.64 54.08 0 49.44L7.76 39.28C10.72 42.08 15.44 43.84 19.84 43.84C24.64 43.84 27.92 41.76 27.92 38.72C27.92 35.6 24.72 33.44 20.08 33.44H12.4V21.68H20.08C24 21.68 26.8 20 26.8 17.6C26.8 15.04 23.68 13.28 19.12 13.28C15.52 13.28 11.6 14.48 9.12 16.32L1.92 6.32C6.32 2.48 13.6 0 20.8 0C32.72 0 40.88 6.32 40.88 15.52C40.88 20.56 38.32 24.8 34 27.44Z" fill="#E8EAE9" fill-opacity="0.25"/>
</svg>
