<svg width="32" height="32" viewBox="0 0 32 32" fill="none" xmlns="http://www.w3.org/2000/svg">
  <path d="M13.998 26.613C13.3169 26.613 12.7623 26.0578 12.7623 25.3747V16.7066L10.563 16.7081C9.88735 16.7081 9.33281 16.1583 9.32688 15.4816L9.31255 13.9942C9.30959 13.6608 9.43611 13.3473 9.67038 13.111C9.90366 12.8743 10.2155 12.744 10.5482 12.744H12.7623V10.5151C12.7623 7.17362 14.4635 5.33301 17.552 5.33301C18.7738 5.33301 19.8404 5.41969 19.8503 5.42068C20.3272 5.46328 20.686 5.85656 20.686 6.33554V8.59916C20.686 9.10538 20.2748 9.51748 19.7697 9.51748H18.3324C17.7309 9.51748 17.2412 10.0079 17.2412 10.6112L17.2135 12.744H19.4069C19.7593 12.744 20.0954 12.8956 20.3297 13.1591C20.5639 13.4226 20.6751 13.7748 20.6341 14.1255L20.4616 15.6114C20.3895 16.236 19.8616 16.7066 19.2349 16.7066H17.2105V25.3747C17.2105 26.0578 16.656 26.613 15.9749 26.613H13.998Z" fill="#2E2E32"/>
</svg>
