<svg width="33" height="32" viewBox="0 0 33 32" fill="none" xmlns="http://www.w3.org/2000/svg">
  <path d="M12.45 5.33301C8.89789 5.33301 6.00793 8.22929 6.00793 11.7891V20.2102C6.00793 23.7701 8.89789 26.6663 12.45 26.6663H20.8527C24.4047 26.6663 27.2947 23.7701 27.2947 20.2102V11.7891C27.2947 8.22929 24.4047 5.33301 20.8527 5.33301H12.45ZM22.2531 9.26283C22.8721 9.26283 23.3735 9.76529 23.3735 10.3856C23.3735 11.0054 22.8721 11.5084 22.2531 11.5084C21.6341 11.5084 21.1327 11.0054 21.1327 10.3856C21.1327 9.76529 21.6341 9.26283 22.2531 9.26283ZM16.6513 10.3856C19.7401 10.3856 22.2531 12.9041 22.2531 15.9997C22.2531 19.0953 19.7401 21.6137 16.6513 21.6137C13.5625 21.6137 11.0495 19.0953 11.0495 15.9997C11.0495 12.9041 13.5625 10.3856 16.6513 10.3856ZM16.6513 12.0698C16.1364 12.0698 15.6265 12.1715 15.1507 12.369C14.675 12.5665 14.2427 12.856 13.8786 13.2209C13.5145 13.5858 13.2256 14.019 13.0286 14.4958C12.8315 14.9726 12.7301 15.4836 12.7301 15.9997C12.7301 16.5157 12.8315 17.0268 13.0286 17.5036C13.2256 17.9803 13.5145 18.4136 13.8786 18.7785C14.2427 19.1434 14.675 19.4329 15.1507 19.6304C15.6265 19.8279 16.1364 19.9295 16.6513 19.9295C17.1663 19.9295 17.6762 19.8279 18.1519 19.6304C18.6277 19.4329 19.0599 19.1434 19.4241 18.7785C19.7882 18.4136 20.077 17.9803 20.2741 17.5036C20.4711 17.0268 20.5726 16.5157 20.5726 15.9997C20.5726 15.4836 20.4711 14.9726 20.2741 14.4958C20.077 14.019 19.7882 13.5858 19.4241 13.2209C19.0599 12.856 18.6277 12.5665 18.1519 12.369C17.6762 12.1715 17.1663 12.0698 16.6513 12.0698Z" fill="#2E2E32"></path>
</svg>
