<svg width="33" height="32" viewBox="0 0 33 32" fill="none" xmlns="http://www.w3.org/2000/svg">
  <path d="M24.2514 5.33301H9.46894C7.67612 5.33301 6.2168 6.79553 6.2168 8.59227V23.4071C6.2168 25.2038 7.67612 26.6663 9.46894 26.6663H24.2514C26.0442 26.6663 27.5036 25.2038 27.5036 23.4071V8.59227C27.5036 6.79553 26.0442 5.33301 24.2514 5.33301ZM13.3124 21.9256C13.3124 22.2533 13.0481 22.5182 12.7211 22.5182H10.9472C10.6202 22.5182 10.3559 22.2533 10.3559 21.9256V14.2219C10.3559 13.8942 10.6202 13.6293 10.9472 13.6293H12.7211C13.0481 13.6293 13.3124 13.8942 13.3124 14.2219V21.9256ZM11.8341 12.4441C11.0176 12.4441 10.3559 11.781 10.3559 10.9626C10.3559 10.1443 11.0176 9.48116 11.8341 9.48116C12.6507 9.48116 13.3124 10.1443 13.3124 10.9626C13.3124 11.781 12.6507 12.4441 11.8341 12.4441ZM23.3645 21.9256C23.3645 22.2533 23.1002 22.5182 22.7732 22.5182H20.9993C20.6723 22.5182 20.408 22.2533 20.408 21.9256V17.4812C20.408 16.664 19.7451 15.9997 18.9297 15.9997C18.1143 15.9997 17.4515 16.664 17.4515 17.4812V21.9256C17.4515 22.2533 17.1872 22.5182 16.8602 22.5182H15.0863C14.7593 22.5182 14.495 22.2533 14.495 21.9256V14.2219C14.495 13.8942 14.7593 13.6293 15.0863 13.6293H16.8602C17.1872 13.6293 17.4515 13.8942 17.4515 14.2219V14.5425C18.08 13.9766 18.9073 13.6293 19.8167 13.6293C21.7733 13.6293 23.3645 15.224 23.3645 17.1849V21.9256Z" fill="#2E2E32"></path>
</svg>
