<svg width="24" height="24" viewBox="0 0 24 24" fill="none" xmlns="http://www.w3.org/2000/svg">
<path d="M12.4 4C10.198 4 8.4 5.79797 8.4 8C8.4 10.202 10.198 12 12.4 12C14.602 12 16.4 10.202 16.4 8C16.4 5.79797 14.602 4 12.4 4ZM12.4 5.2C13.9535 5.2 15.2 6.4465 15.2 8C15.2 9.5535 13.9535 10.8 12.4 10.8C10.8465 10.8 9.6 9.5535 9.6 8C9.6 6.4465 10.8465 5.2 12.4 5.2ZM7.59141 13.6C6.71948 13.6 6 14.3195 6 15.1914V15.8C6 17.2417 6.91171 18.3569 8.12266 19.025C9.3336 19.6931 10.8672 20 12.4 20C13.9328 20 15.4664 19.6931 16.6773 19.025C17.7099 18.4553 18.4869 17.545 18.7047 16.4H18.8008V15.1914C18.8008 14.3195 18.0805 13.6 17.2086 13.6H7.59141ZM7.59141 14.8H17.2086C17.4319 14.8 17.6008 14.9681 17.6008 15.1914V15.2H17.6V15.8C17.6 16.7583 17.0617 17.4431 16.0977 17.975C15.1336 18.5069 13.7672 18.8 12.4 18.8C11.0328 18.8 9.6664 18.5069 8.70234 17.975C7.73829 17.4431 7.2 16.7583 7.2 15.8V15.1914C7.2 14.9681 7.36813 14.8 7.59141 14.8Z" fill="#2E2E32"/>
</svg>
